<svg width="187" height="49" viewBox="0 0 187 49" fill="none" xmlns="http://www.w3.org/2000/svg">
<path d="M30.936 40.064H14.168L11.48 48H0.0239868L16.28 3.07201H28.952L45.208 48H33.624L30.936 40.064ZM28.12 31.616L22.552 15.168L17.048 31.616H28.12Z" fill="#CCCCCC"/>
<path d="M61.0995 0.640015V48H50.1555V0.640015H61.0995Z" fill="#CCCCCC"/>
<path d="M79.9745 0.640015V48H69.0305V0.640015H79.9745Z" fill="#CCCCCC"/>
<path d="M85.7295 30.08C85.7295 26.4107 86.4122 23.1893 87.7775 20.416C89.1855 17.6427 91.0842 15.5093 93.4735 14.016C95.8628 12.5227 98.5295 11.776 101.473 11.776C103.991 11.776 106.188 12.288 108.065 13.312C109.985 14.336 111.457 15.68 112.481 17.344V12.288H123.425V48H112.481V42.944C111.415 44.608 109.921 45.952 108.001 46.976C106.124 48 103.927 48.512 101.409 48.512C98.5082 48.512 95.8628 47.7653 93.4735 46.272C91.0842 44.736 89.1855 42.5813 87.7775 39.808C86.4122 36.992 85.7295 33.7493 85.7295 30.08ZM112.481 30.144C112.481 27.4133 111.713 25.2587 110.177 23.68C108.684 22.1013 106.849 21.312 104.673 21.312C102.497 21.312 100.641 22.1013 99.1055 23.68C97.6122 25.216 96.8655 27.3493 96.8655 30.08C96.8655 32.8107 97.6122 34.9867 99.1055 36.608C100.641 38.1867 102.497 38.976 104.673 38.976C106.849 38.976 108.684 38.1867 110.177 36.608C111.713 35.0294 112.481 32.8747 112.481 30.144Z" fill="#CCCCCC"/>
<path d="M153.103 11.904C157.284 11.904 160.612 13.2693 163.087 16C165.604 18.688 166.863 22.4 166.863 27.136V48H155.983V28.608C155.983 26.2187 155.364 24.3627 154.127 23.04C152.89 21.7173 151.226 21.056 149.135 21.056C147.044 21.056 145.38 21.7173 144.143 23.04C142.906 24.3627 142.287 26.2187 142.287 28.608V48H131.343V12.288H142.287V17.024C143.396 15.4453 144.89 14.208 146.767 13.312C148.644 12.3733 150.756 11.904 153.103 11.904Z" fill="#CCCCCC"/>
<path d="M179.588 48.512C177.668 48.512 176.089 47.9573 174.852 46.848C173.657 45.696 173.06 44.288 173.06 42.624C173.06 40.9173 173.657 39.488 174.852 38.336C176.089 37.184 177.668 36.608 179.588 36.608C181.465 36.608 183.001 37.184 184.196 38.336C185.433 39.488 186.052 40.9173 186.052 42.624C186.052 44.288 185.433 45.696 184.196 46.848C183.001 47.9573 181.465 48.512 179.588 48.512Z" fill="#F0BC04"/>
</svg>
