<svg width="52" height="56" viewBox="0 0 52 56" fill="none" xmlns="http://www.w3.org/2000/svg">
<g clip-path="url(#clip0_32_210)">
<path fill-rule="evenodd" clip-rule="evenodd" d="M0 28.2641C0 40.7496 7.33841 51.3439 17.5166 55.0812C18.7981 55.3415 19.2651 54.4688 19.2651 53.7192C19.2651 53.0478 19.2431 51.271 19.2305 48.9131C12.1059 50.6204 10.6027 45.1237 10.6027 45.1237C9.43756 41.8583 7.75824 40.9891 7.75824 40.9891C5.43265 39.2349 7.93435 39.2714 7.93435 39.2714C10.5052 39.4709 11.8575 42.1845 11.8575 42.1845C14.1438 46.5031 17.8531 45.2556 19.3123 44.5321C19.545 42.7051 20.207 41.461 20.9381 40.7531C15.2507 40.04 9.27089 37.6161 9.27089 26.7859C9.27089 23.6992 10.2694 21.1764 11.9078 19.2002C11.6452 18.4853 10.7662 15.6121 12.1594 11.7221C12.1594 11.7221 14.3104 10.9604 19.2022 14.6179C21.2463 13.9915 23.4367 13.6775 25.6144 13.6671C27.7907 13.6775 29.981 13.9915 32.0283 14.6179C36.9169 10.9604 39.0648 11.7221 39.0648 11.7221C40.4611 15.6121 39.5821 18.4853 39.3195 19.2002C40.9611 21.1764 41.9517 23.6992 41.9517 26.7859C41.9517 37.6421 35.964 40.0313 30.2578 40.7323C31.1776 41.605 31.9953 43.3297 31.9953 45.9652C31.9953 49.7442 31.9654 52.7927 31.9654 53.7192C31.9654 54.4757 32.4261 55.3536 33.7265 55.0778C43.8952 51.3335 51.2273 40.7479 51.2273 28.2641C51.2273 12.6538 39.7582 0 25.6113 0C11.4691 0 0 12.6538 0 28.2641Z" fill="#CCCCCC"/>
</g>
<defs>
<clipPath id="clip0_32_210">
<rect width="51.2273" height="55.1297" fill="white"/>
</clipPath>
</defs>
</svg>
