<svg width="52" height="56" viewBox="0 0 52 56" fill="none" xmlns="http://www.w3.org/2000/svg">
<path d="M43.9117 46.974H36.3214V34.1815C36.3214 31.131 36.2708 27.2041 32.3737 27.2041C28.4204 27.2041 27.8156 30.5277 27.8156 33.9594V46.9731H20.2253V20.6666H27.512V24.2617H27.6139C29.0997 21.5277 31.8624 19.8948 34.8034 20.0123C42.4964 20.0123 43.9149 25.458 43.9149 32.5427L43.9117 46.974ZM11.6609 17.0707C9.22823 17.0711 7.25581 14.9492 7.25537 12.3311C7.25494 9.71311 9.22665 7.59038 11.6593 7.58991C14.092 7.58944 16.0644 9.7114 16.0648 12.3294C16.0651 13.5867 15.6012 14.7925 14.7753 15.6817C13.9494 16.5708 12.8291 17.0705 11.6609 17.0707ZM15.456 46.974H7.85785V20.6666H15.456V46.974ZM47.6958 0.00411077H4.04373C1.98065 -0.0209453 0.28879 1.75756 0.263611 3.97783V51.1511C0.287928 53.3724 1.97965 55.1527 4.04373 55.1294H47.6958C49.764 55.1569 51.4623 53.3768 51.4909 51.1511V3.97443C51.4614 1.74977 49.763 -0.0286334 47.6958 0.000349272" fill="#CCCCCC"/>
</svg>
