<svg width="462" height="47" viewBox="0 0 462 47" fill="none" xmlns="http://www.w3.org/2000/svg">
<path d="M0 35.9989L0.266023 -0.00012207L3.26594 0.0220465L2.99992 36.0211L0 35.9989Z" fill="#F0BC04"/>
<path d="M24.2 28.824H14.456L12.704 36H4.472L14.648 2.73599H24.2L34.376 36H25.952L24.2 28.824ZM15.704 23.112H22.904L19.304 8.39999L15.704 23.112Z" fill="#CCCCCC"/>
<path d="M52.3573 0.383992V27.984C52.3573 29.008 52.6453 29.744 53.2213 30.192C53.8133 30.624 54.6213 30.84 55.6453 30.84C56.3013 30.84 56.9333 30.768 57.5413 30.624C58.1493 30.464 58.7173 30.28 59.2453 30.072L61.0693 35.136C60.2053 35.584 59.1652 35.976 57.9492 36.312C56.7332 36.648 55.3173 36.816 53.7013 36.816C50.6293 36.816 48.3733 35.936 46.9333 34.176C45.4933 32.4 44.7733 30.024 44.7733 27.048V5.56799H37.2612V0.383992H52.3573Z" fill="#CCCCCC"/>
<path d="M83.0585 0.383992V27.984C83.0585 29.008 83.3465 29.744 83.9225 30.192C84.5145 30.624 85.3225 30.84 86.3465 30.84C87.0025 30.84 87.6345 30.768 88.2425 30.624C88.8505 30.464 89.4185 30.28 89.9465 30.072L91.7705 35.136C90.9065 35.584 89.8665 35.976 88.6505 36.312C87.4345 36.648 86.0185 36.816 84.4025 36.816C81.3305 36.816 79.0745 35.936 77.6345 34.176C76.1945 32.4 75.4745 30.024 75.4745 27.048V5.56799H67.9625V0.383992H83.0585Z" fill="#CCCCCC"/>
<path d="M121.92 28.656C121.92 29.616 122.048 30.312 122.304 30.744C122.576 31.176 123.008 31.504 123.6 31.728L122.04 36.72C120.536 36.576 119.264 36.248 118.224 35.736C117.2 35.208 116.392 34.416 115.8 33.36C114.824 34.528 113.576 35.4 112.056 35.976C110.536 36.536 108.984 36.816 107.4 36.816C104.776 36.816 102.68 36.072 101.112 34.584C99.5598 33.08 98.7838 31.152 98.7838 28.8C98.7838 26.032 99.8637 23.896 102.024 22.392C104.2 20.888 107.256 20.136 111.192 20.136H114.624V19.176C114.624 17.848 114.192 16.864 113.328 16.224C112.48 15.584 111.232 15.264 109.584 15.264C108.768 15.264 107.72 15.384 106.44 15.624C105.16 15.848 103.88 16.176 102.6 16.608L100.848 11.568C102.496 10.944 104.208 10.472 105.984 10.152C107.776 9.83199 109.376 9.67199 110.784 9.67199C114.576 9.67199 117.376 10.448 119.184 12C121.008 13.536 121.92 15.76 121.92 18.672V28.656ZM110.016 31.392C110.832 31.392 111.688 31.152 112.584 30.672C113.48 30.176 114.16 29.48 114.624 28.584V24.456H112.752C110.64 24.456 109.088 24.784 108.096 25.44C107.104 26.08 106.608 27.024 106.608 28.272C106.608 29.248 106.904 30.016 107.496 30.576C108.104 31.12 108.944 31.392 110.016 31.392Z" fill="#CCCCCC"/>
<path d="M131.165 36V10.512H137.789L138.317 13.464C139.453 12.184 140.653 11.232 141.917 10.608C143.181 9.98399 144.621 9.67199 146.237 9.67199C148.413 9.67199 150.125 10.336 151.373 11.664C152.621 12.992 153.245 14.864 153.245 17.28V36H145.661V19.464C145.661 18.424 145.589 17.6 145.445 16.992C145.301 16.368 145.045 15.928 144.677 15.672C144.325 15.4 143.837 15.264 143.213 15.264C142.685 15.264 142.165 15.384 141.653 15.624C141.157 15.848 140.669 16.176 140.189 16.608C139.709 17.04 139.229 17.56 138.749 18.168V36H131.165Z" fill="#CCCCCC"/>
<path d="M208.408 28.824H198.663L196.911 36H188.68L198.855 2.73599H208.408L218.584 36H210.16L208.408 28.824ZM199.911 23.112H207.112L203.512 8.39999L199.911 23.112Z" fill="#CCCCCC"/>
<path d="M236.565 0.383992V27.984C236.565 29.008 236.853 29.744 237.429 30.192C238.021 30.624 238.829 30.84 239.853 30.84C240.509 30.84 241.141 30.768 241.749 30.624C242.357 30.464 242.925 30.28 243.453 30.072L245.277 35.136C244.413 35.584 243.373 35.976 242.157 36.312C240.941 36.648 239.525 36.816 237.909 36.816C234.837 36.816 232.581 35.936 231.141 34.176C229.701 32.4 228.981 30.024 228.981 27.048V5.56799H221.469V0.383992H236.565Z" fill="#CCCCCC"/>
<path d="M278.018 10.512L269.522 36H260.594L252.002 10.512H260.186L265.154 30.192L270.338 10.512H278.018Z" fill="#CCCCCC"/>
<path d="M306.127 28.656C306.127 29.616 306.255 30.312 306.511 30.744C306.783 31.176 307.215 31.504 307.807 31.728L306.247 36.72C304.743 36.576 303.471 36.248 302.431 35.736C301.407 35.208 300.599 34.416 300.007 33.36C299.031 34.528 297.783 35.4 296.263 35.976C294.743 36.536 293.191 36.816 291.607 36.816C288.983 36.816 286.887 36.072 285.319 34.584C283.767 33.08 282.991 31.152 282.991 28.8C282.991 26.032 284.071 23.896 286.231 22.392C288.407 20.888 291.463 20.136 295.399 20.136H298.831V19.176C298.831 17.848 298.399 16.864 297.535 16.224C296.687 15.584 295.439 15.264 293.791 15.264C292.975 15.264 291.927 15.384 290.647 15.624C289.367 15.848 288.087 16.176 286.807 16.608L285.055 11.568C286.703 10.944 288.415 10.472 290.191 10.152C291.983 9.83199 293.583 9.67199 294.991 9.67199C298.783 9.67199 301.583 10.448 303.391 12C305.215 13.536 306.127 15.76 306.127 18.672V28.656ZM294.223 31.392C295.039 31.392 295.895 31.152 296.791 30.672C297.687 30.176 298.367 29.48 298.831 28.584V24.456H296.959C294.847 24.456 293.295 24.784 292.303 25.44C291.311 26.08 290.815 27.024 290.815 28.272C290.815 29.248 291.111 30.016 291.703 30.576C292.311 31.12 293.151 31.392 294.223 31.392Z" fill="#CCCCCC"/>
<path d="M315.613 36V30.912H318.973V15.552H315.613V10.512H324.757L326.148 16.248C327.06 14.056 328.221 12.424 329.629 11.352C331.053 10.28 332.789 9.74399 334.837 9.74399C335.701 9.74399 336.469 9.81599 337.141 9.95999C337.813 10.088 338.444 10.272 339.036 10.512L336.733 16.776C336.269 16.648 335.805 16.552 335.341 16.488C334.877 16.424 334.365 16.392 333.805 16.392C332.141 16.392 330.677 17.072 329.413 18.432C328.165 19.792 327.213 21.52 326.557 23.616V30.912H331.597V36H315.613ZM332.868 21.168V13.728L333.997 10.512H339.036L337.621 21.168H332.868Z" fill="#CCCCCC"/>
<path d="M352.65 25.464C352.826 26.856 353.186 27.984 353.73 28.848C354.29 29.696 355.002 30.32 355.866 30.72C356.73 31.104 357.698 31.296 358.77 31.296C359.938 31.296 361.066 31.104 362.154 30.72C363.242 30.336 364.29 29.824 365.298 29.184L368.346 33.312C367.146 34.336 365.69 35.176 363.978 35.832C362.282 36.488 360.346 36.816 358.17 36.816C355.258 36.816 352.818 36.24 350.85 35.088C348.882 33.92 347.402 32.32 346.41 30.288C345.418 28.256 344.922 25.92 344.922 23.28C344.922 20.768 345.402 18.488 346.362 16.44C347.322 14.376 348.722 12.736 350.562 11.52C352.418 10.288 354.682 9.67199 357.354 9.67199C359.786 9.67199 361.89 10.192 363.666 11.232C365.458 12.272 366.842 13.768 367.818 15.72C368.81 17.672 369.306 20.016 369.306 22.752C369.306 23.184 369.29 23.648 369.258 24.144C369.242 24.64 369.21 25.08 369.162 25.464H352.65ZM357.354 14.76C355.994 14.76 354.898 15.248 354.066 16.224C353.234 17.2 352.73 18.76 352.554 20.904H361.914C361.898 19.048 361.538 17.56 360.834 16.44C360.13 15.32 358.97 14.76 357.354 14.76Z" fill="#CCCCCC"/>
<path d="M376.775 36V10.512H383.399L383.927 13.464C385.063 12.184 386.263 11.232 387.527 10.608C388.791 9.98399 390.231 9.67199 391.847 9.67199C394.023 9.67199 395.735 10.336 396.983 11.664C398.231 12.992 398.855 14.864 398.855 17.28V36H391.271V19.464C391.271 18.424 391.199 17.6 391.055 16.992C390.911 16.368 390.655 15.928 390.287 15.672C389.935 15.4 389.447 15.264 388.823 15.264C388.295 15.264 387.775 15.384 387.263 15.624C386.767 15.848 386.279 16.176 385.799 16.608C385.319 17.04 384.839 17.56 384.359 18.168V36H376.775Z" fill="#CCCCCC"/>
<path d="M430.108 6.43199L431.884 12C430.988 12.352 429.94 12.608 428.74 12.768C427.54 12.928 426.14 13.008 424.54 13.008C426.14 13.696 427.356 14.552 428.188 15.576C429.036 16.584 429.46 17.912 429.46 19.56C429.46 21.208 429.02 22.68 428.14 23.976C427.26 25.256 426.012 26.264 424.396 27C422.78 27.736 420.868 28.104 418.66 28.104C418.116 28.104 417.604 28.08 417.124 28.032C416.644 27.984 416.172 27.912 415.708 27.816C415.436 27.96 415.228 28.168 415.084 28.44C414.94 28.712 414.868 28.992 414.868 29.28C414.868 29.68 415.028 30.04 415.348 30.36C415.684 30.68 416.46 30.84 417.676 30.84H421.852C423.836 30.84 425.548 31.16 426.988 31.8C428.444 32.44 429.572 33.312 430.372 34.416C431.172 35.52 431.572 36.784 431.572 38.208C431.572 40.816 430.428 42.872 428.14 44.376C425.852 45.88 422.452 46.632 417.94 46.632C414.676 46.632 412.148 46.296 410.356 45.624C408.58 44.968 407.34 44.024 406.636 42.792C405.948 41.576 405.604 40.128 405.604 38.448H412.324C412.324 39.184 412.468 39.784 412.756 40.248C413.06 40.728 413.628 41.08 414.46 41.304C415.308 41.528 416.532 41.64 418.132 41.64C419.748 41.64 420.98 41.512 421.828 41.256C422.676 41 423.252 40.648 423.556 40.2C423.876 39.768 424.036 39.28 424.036 38.736C424.036 37.984 423.74 37.376 423.148 36.912C422.556 36.448 421.62 36.216 420.34 36.216H416.284C413.532 36.216 411.532 35.712 410.284 34.704C409.036 33.68 408.412 32.488 408.412 31.128C408.412 30.184 408.66 29.288 409.156 28.44C409.668 27.592 410.38 26.88 411.292 26.304C409.66 25.44 408.492 24.424 407.788 23.256C407.084 22.072 406.732 20.656 406.732 19.008C406.732 17.088 407.22 15.44 408.196 14.064C409.172 12.672 410.516 11.6 412.228 10.848C413.956 10.096 415.924 9.71999 418.132 9.71999C420.036 9.75199 421.692 9.62399 423.1 9.33599C424.508 9.03199 425.772 8.62399 426.892 8.11199C428.012 7.58399 429.084 7.02399 430.108 6.43199ZM418.324 14.64C417.124 14.64 416.172 15.024 415.468 15.792C414.764 16.544 414.412 17.584 414.412 18.912C414.412 20.32 414.772 21.4 415.492 22.152C416.212 22.904 417.156 23.28 418.324 23.28C419.588 23.28 420.548 22.904 421.204 22.152C421.876 21.4 422.212 20.288 422.212 18.816C422.212 17.392 421.884 16.344 421.228 15.672C420.572 14.984 419.604 14.64 418.324 14.64Z" fill="#CCCCCC"/>
<path d="M459.634 28.656C459.634 29.616 459.762 30.312 460.018 30.744C460.29 31.176 460.722 31.504 461.314 31.728L459.754 36.72C458.25 36.576 456.977 36.248 455.938 35.736C454.913 35.208 454.106 34.416 453.514 33.36C452.538 34.528 451.29 35.4 449.77 35.976C448.25 36.536 446.697 36.816 445.113 36.816C442.489 36.816 440.394 36.072 438.826 34.584C437.274 33.08 436.497 31.152 436.497 28.8C436.497 26.032 437.578 23.896 439.738 22.392C441.914 20.888 444.97 20.136 448.906 20.136H452.337V19.176C452.337 17.848 451.906 16.864 451.042 16.224C450.194 15.584 448.946 15.264 447.298 15.264C446.482 15.264 445.434 15.384 444.154 15.624C442.874 15.848 441.594 16.176 440.314 16.608L438.561 11.568C440.209 10.944 441.922 10.472 443.698 10.152C445.49 9.83199 447.089 9.67199 448.497 9.67199C452.289 9.67199 455.089 10.448 456.897 12C458.721 13.536 459.634 15.76 459.634 18.672V28.656ZM447.729 31.392C448.545 31.392 449.402 31.152 450.298 30.672C451.194 30.176 451.873 29.48 452.337 28.584V24.456H450.466C448.354 24.456 446.802 24.784 445.81 25.44C444.818 26.08 444.322 27.024 444.322 28.272C444.322 29.248 444.618 30.016 445.21 30.576C445.818 31.12 446.657 31.392 447.729 31.392Z" fill="#CCCCCC"/>
</svg>
