<svg width="62" height="47" viewBox="0 0 62 47" fill="none" xmlns="http://www.w3.org/2000/svg">
<path d="M55.7066 11.6097C55.7441 12.1144 55.7441 12.6191 55.7441 13.1284C55.7441 28.6474 43.0574 46.5454 19.8594 46.5454V46.5361C13.0066 46.5455 6.29614 44.7175 0.527222 41.2709C1.52367 41.3825 2.52512 41.4384 3.52906 41.4407C9.20808 41.4453 14.7248 39.6709 19.1926 36.4033C13.7957 36.308 9.06323 33.0312 7.40997 28.2473C9.30048 28.5869 11.2484 28.5171 13.104 28.045C7.22017 26.938 2.98713 22.1239 2.98713 16.5331C2.98713 16.4819 2.98713 16.4331 2.98713 16.3843C4.74028 17.2936 6.70322 17.7983 8.7111 17.8541C3.16944 14.4052 1.46124 7.53988 4.80771 2.17231C11.211 9.50969 20.6585 13.9703 30.8003 14.4424C29.7839 10.3632 31.1724 6.08868 34.449 3.22117C39.5286 -1.22545 47.5177 -0.997536 52.2927 3.73048C55.1172 3.21187 57.8244 2.24673 60.3018 0.879253C59.3602 3.59792 57.3898 5.90728 54.7576 7.37476C57.2575 7.10033 59.6999 6.47706 62 5.52587C60.3067 7.88872 58.174 9.94691 55.7066 11.6097Z" fill="#CCCCCC"/>
</svg>
